<svg
  fill="none"
  height="45"
  viewBox="0 0 46 45"
  width="46"
  xmlns="http://www.w3.org/2000/svg"
>
  <title>TradeLogger icon</title>
  <g clip-path="url(#clip0_icon)">
    <g filter="url(#filter0_icon)">
      <rect x="1" y="0.358643" width="44" height="44" rx="9.5" fill="#0689CA"/>
      <rect
        x="1.91667"
        y="1.27531"
        width="42.1667"
        height="42.1667"
        rx="8.58333"
        stroke="url(#paint0_icon)"
        stroke-width="1.83333"
      />
      <path
        fill-rule="evenodd"
        clip-rule="evenodd"
        d="M12.1482 14.7879C12.6053 12.8162 14.5813 11.5868 16.5615 12.042L29.7857 15.0819C31.766 15.537 33.0007 17.5044 32.5435 19.4762L29.4904 32.6431C29.0333 34.6149 27.0574 35.8443 25.0771 35.389L11.8529 32.3492C9.87265 31.894 8.63793 29.9266 9.09514 27.9549L12.1482 14.7879ZM16.5095 12.0742C16.9667 10.1025 18.9426 8.87314 20.9229 9.32837L34.147 12.3682C36.1274 12.8233 37.3621 14.7908 36.9048 16.7625L33.8518 29.9295C33.3947 31.9012 31.4187 33.1306 29.4384 32.6753L16.2143 29.6355C14.234 29.1803 12.9993 27.2129 13.4565 25.2412L16.5095 12.0742Z"
        fill="white"
      />
    </g>
  </g>
  <rect
    x="0.93125"
    y="0.289893"
    width="44.1375"
    height="44.1375"
    rx="9.56875"
    stroke="#f5f5f5"
    stroke-opacity="0.2"
    stroke-width="0.1375"
  />
  <defs>
    <filter
      id="filter0_icon"
      x="1"
      y="-12.0164"
      width="49.5"
      height="56.375"
      filterUnits="userSpaceOnUse"
      color-interpolation-filters="sRGB"
    >
      <feFlood flood-opacity="0" result="BackgroundImageFix"/>
      <feBlend mode="normal" in="SourceGraphic" in2="BackgroundImageFix" result="shape"/>
      <feColorMatrix
        in="SourceAlpha"
        type="matrix"
        values="0 0 0 0 0 0 0 0 0 0 0 0 0 0 0 0 0 0 127 0"
        result="hardAlpha"
      />
      <feOffset dx="5.5" dy="-12.375"/>
      <feGaussianBlur stdDeviation="11"/>
      <feComposite in2="hardAlpha" operator="arithmetic" k2="-1" k3="1"/>
      <feColorMatrix
        type="matrix"
        values="0 0 0 0 0.0235294 0 0 0 0 0.537255 0 0 0 0 0.792157 0 0 0 0.25 0"
      />
      <feBlend mode="normal" in2="shape" result="effect1_innerShadow_icon"/>
    </filter>
    <linearGradient
      id="paint0_icon"
      x1="23"
      y1="0.358643"
      x2="23"
      y2="44.3586"
      gradientUnits="userSpaceOnUse"
    >
      <stop stop-color="#1396D7"/>
      <stop offset="1" stop-color="#007CBD"/>
    </linearGradient>
    <clipPath id="clip0_icon">
      <rect x="1" y="0.358643" width="44" height="44" rx="9.5" fill="white"/>
    </clipPath>
  </defs>
</svg>
