<svg
  fill="none"
  height="45"
  viewBox="0 0 184 45"
  width="184"
  xmlns="http://www.w3.org/2000/svg"
>
  <title>TradeLogger logo</title>
  <g clip-path="url(#clip0_logo)">
    <g filter="url(#filter0_logo)">
      <rect x="1" y="0.358643" width="44" height="44" rx="9.5" fill="#0689CA"/>
      <rect
        x="1.91667"
        y="1.27531"
        width="42.1667"
        height="42.1667"
        rx="8.58333"
        stroke="url(#paint0_logo)"
        stroke-width="1.83333"
      />
      <path
        fill-rule="evenodd"
        clip-rule="evenodd"
        d="M12.1482 14.7879C12.6053 12.8162 14.5813 11.5868 16.5615 12.042L29.7857 15.0819C31.766 15.537 33.0007 17.5044 32.5435 19.4762L29.4904 32.6431C29.0333 34.6149 27.0574 35.8443 25.0771 35.389L11.8529 32.3492C9.87265 31.894 8.63793 29.9266 9.09514 27.9549L12.1482 14.7879ZM16.5095 12.0742C16.9667 10.1025 18.9426 8.87314 20.9229 9.32837L34.147 12.3682C36.1274 12.8233 37.3621 14.7908 36.9048 16.7625L33.8518 29.9295C33.3947 31.9012 31.4187 33.1306 29.4384 32.6753L16.2143 29.6355C14.234 29.1803 12.9993 27.2129 13.4565 25.2412L16.5095 12.0742Z"
        fill="white"
      />
    </g>
  </g>
  <rect
    x="0.93125"
    y="0.289893"
    width="44.1375"
    height="44.1375"
    rx="9.56875"
    stroke="#f5f5f5"
    stroke-opacity="0.2"
    stroke-width="0.1375"
  />
  <path
    d="M56.517 31.3586V13.9041H68.0739V16.9467H60.2074V21.1058H67.3068V24.1484H60.2074V31.3586H56.517ZM70.277 31.3586V18.2677H73.7969V20.5518H73.9332C74.1719 19.7393 74.5724 19.1257 75.1349 18.7109C75.6974 18.2905 76.3452 18.0802 77.0781 18.0802C77.2599 18.0802 77.456 18.0916 77.6662 18.1143C77.8764 18.1371 78.0611 18.1683 78.2202 18.2081V21.4297C78.0497 21.3785 77.8139 21.3331 77.5128 21.2933C77.2116 21.2535 76.9361 21.2336 76.6861 21.2336C76.152 21.2336 75.6747 21.3501 75.2543 21.5831C74.8395 21.8103 74.5099 22.1285 74.2656 22.5376C74.027 22.9467 73.9077 23.4183 73.9077 23.9524V31.3586H70.277ZM83.4553 31.6058C82.62 31.6058 81.8757 31.4609 81.2223 31.1711C80.5689 30.8757 80.0518 30.441 79.6712 29.8672C79.2962 29.2876 79.1087 28.566 79.1087 27.7024C79.1087 26.9751 79.2422 26.3643 79.5092 25.87C79.7763 25.3757 80.1399 24.978 80.6001 24.6768C81.0604 24.3757 81.5831 24.1484 82.1683 23.995C82.7592 23.8416 83.3786 23.7336 84.0263 23.6711C84.7876 23.5916 85.4013 23.5177 85.8672 23.4496C86.3331 23.3757 86.6712 23.2677 86.8814 23.1257C87.0916 22.9836 87.1967 22.7734 87.1967 22.495V22.4439C87.1967 21.9041 87.0263 21.4865 86.6854 21.191C86.3501 20.8956 85.8729 20.7478 85.2536 20.7478C84.6001 20.7478 84.0803 20.8927 83.6939 21.1825C83.3075 21.4666 83.0518 21.8246 82.9268 22.2564L79.5689 21.9836C79.7393 21.1882 80.0746 20.5007 80.5746 19.9211C81.0746 19.3359 81.7195 18.8871 82.5092 18.5746C83.3047 18.2564 84.2251 18.0973 85.2706 18.0973C85.9979 18.0973 86.6939 18.1825 87.3587 18.353C88.0291 18.5234 88.6229 18.7876 89.1399 19.1456C89.6626 19.5035 90.0746 19.9638 90.3757 20.5263C90.6768 21.0831 90.8274 21.7507 90.8274 22.5291V31.3586H87.3842V29.5433H87.282C87.0717 29.9524 86.7905 30.3132 86.4382 30.6257C86.0859 30.9325 85.6626 31.174 85.1683 31.3501C84.674 31.5206 84.103 31.6058 83.4553 31.6058ZM84.495 29.1001C85.0291 29.1001 85.5007 28.995 85.9098 28.7848C86.3189 28.5689 86.6399 28.2791 86.8729 27.9155C87.1058 27.5518 87.2223 27.1399 87.2223 26.6797V25.2905C87.1087 25.3643 86.9524 25.4325 86.7536 25.495C86.5604 25.5518 86.3416 25.6058 86.0973 25.6569C85.853 25.7024 85.6087 25.745 85.3643 25.7848C85.12 25.8189 84.8984 25.8501 84.6996 25.8785C84.2734 25.941 83.9013 26.0405 83.5831 26.1768C83.2649 26.3132 83.0178 26.4978 82.8416 26.7308C82.6655 26.9581 82.5774 27.2422 82.5774 27.5831C82.5774 28.0774 82.7564 28.4552 83.1143 28.7166C83.478 28.9723 83.9382 29.1001 84.495 29.1001ZM93.6442 31.3586V18.2677H97.1044V20.5774H97.2578C97.5305 19.8103 97.9851 19.2052 98.6214 18.7621C99.2578 18.3189 100.019 18.0973 100.906 18.0973C101.803 18.0973 102.567 18.3217 103.198 18.7706C103.829 19.2138 104.249 19.816 104.46 20.5774H104.596C104.863 19.8274 105.346 19.228 106.045 18.7791C106.749 18.3246 107.582 18.0973 108.542 18.0973C109.763 18.0973 110.755 18.4865 111.516 19.2649C112.283 20.0376 112.667 21.1342 112.667 22.5547V31.3586H109.045V23.2706C109.045 22.5433 108.852 21.9978 108.465 21.6342C108.079 21.2706 107.596 21.0888 107.016 21.0888C106.357 21.0888 105.843 21.299 105.474 21.7194C105.104 22.1342 104.92 22.6825 104.92 23.3643V31.3586H101.4V23.1939C101.4 22.5518 101.215 22.0405 100.846 21.6598C100.482 21.2791 100.002 21.0888 99.4055 21.0888C99.0021 21.0888 98.6385 21.191 98.3146 21.3956C97.9964 21.5944 97.7436 21.8757 97.5561 22.2393C97.3686 22.5973 97.2749 23.0177 97.2749 23.5007V31.3586H93.6442ZM121.501 31.6143C120.154 31.6143 118.995 31.3416 118.023 30.7961C117.058 30.245 116.313 29.4666 115.79 28.4609C115.268 27.4496 115.006 26.2535 115.006 24.8728C115.006 23.5263 115.268 22.3444 115.79 21.3274C116.313 20.3103 117.049 19.5177 117.998 18.9496C118.952 18.3814 120.072 18.0973 121.356 18.0973C122.219 18.0973 123.023 18.2365 123.768 18.5149C124.518 18.7876 125.171 19.1996 125.728 19.7507C126.29 20.3018 126.728 20.995 127.04 21.8302C127.353 22.6598 127.509 23.6314 127.509 24.745V25.7422H116.455V23.4922H124.092C124.092 22.9694 123.978 22.5064 123.751 22.103C123.523 21.6996 123.208 21.3842 122.805 21.1569C122.407 20.924 121.944 20.8075 121.415 20.8075C120.864 20.8075 120.376 20.9353 119.95 21.191C119.529 21.441 119.2 21.7791 118.961 22.2052C118.722 22.6257 118.6 23.0944 118.594 23.6115V25.7507C118.594 26.3984 118.714 26.9581 118.952 27.4297C119.197 27.9013 119.54 28.2649 119.984 28.5206C120.427 28.7763 120.952 28.9041 121.56 28.9041C121.964 28.9041 122.333 28.8473 122.668 28.7336C123.004 28.62 123.29 28.4496 123.529 28.2223C123.768 27.995 123.95 27.7166 124.075 27.3871L127.433 27.6086C127.262 28.4155 126.913 29.12 126.384 29.7223C125.862 30.3189 125.185 30.7848 124.356 31.12C123.532 31.4496 122.58 31.6143 121.501 31.6143ZM129.947 31.3586V13.9041H141.504V16.9467H133.637V21.1058H140.737V24.1484H133.637V31.3586H129.947ZM147.548 13.9041V31.3586H143.918V13.9041H147.548ZM156.371 31.6143C155.048 31.6143 153.903 31.3331 152.937 30.7706C151.977 30.2024 151.235 29.4126 150.712 28.4013C150.19 27.3842 149.928 26.2052 149.928 24.8643C149.928 23.5121 150.19 22.3302 150.712 21.3189C151.235 20.3018 151.977 19.5121 152.937 18.9496C153.903 18.3814 155.048 18.0973 156.371 18.0973C157.695 18.0973 158.837 18.3814 159.798 18.9496C160.763 19.5121 161.508 20.3018 162.031 21.3189C162.553 22.3302 162.815 23.5121 162.815 24.8643C162.815 26.2052 162.553 27.3842 162.031 28.4013C161.508 29.4126 160.763 30.2024 159.798 30.7706C158.837 31.3331 157.695 31.6143 156.371 31.6143ZM156.388 28.8018C156.991 28.8018 157.494 28.6314 157.897 28.2905C158.3 27.9439 158.604 27.4723 158.809 26.8757C159.019 26.2791 159.124 25.6001 159.124 24.8388C159.124 24.0774 159.019 23.3984 158.809 22.8018C158.604 22.2052 158.3 21.7336 157.897 21.3871C157.494 21.0405 156.991 20.8672 156.388 20.8672C155.781 20.8672 155.269 21.0405 154.854 21.3871C154.445 21.7336 154.136 22.2052 153.925 22.8018C153.721 23.3984 153.619 24.0774 153.619 24.8388C153.619 25.6001 153.721 26.2791 153.925 26.8757C154.136 27.4723 154.445 27.9439 154.854 28.2905C155.269 28.6314 155.781 28.8018 156.388 28.8018ZM167.43 31.3586L163.867 18.2677H167.54L169.569 27.0632H169.688L171.802 18.2677H175.407L177.555 27.0121H177.665L179.66 18.2677H183.325L179.771 31.3586H175.927L173.677 23.1257H173.515L171.265 31.3586H167.43Z"
    fill="#f5f5f5"
  />
  <defs>
    <filter
      id="filter0_logo"
      x="1"
      y="-12.0164"
      width="49.5"
      height="56.375"
      filterUnits="userSpaceOnUse"
      color-interpolation-filters="sRGB"
    >
      <feFlood flood-opacity="0" result="BackgroundImageFix"/>
      <feBlend mode="normal" in="SourceGraphic" in2="BackgroundImageFix" result="shape"/>
      <feColorMatrix
        in="SourceAlpha"
        type="matrix"
        values="0 0 0 0 0 0 0 0 0 0 0 0 0 0 0 0 0 0 127 0"
        result="hardAlpha"
      />
      <feOffset dx="5.5" dy="-12.375"/>
      <feGaussianBlur stdDeviation="11"/>
      <feComposite in2="hardAlpha" operator="arithmetic" k2="-1" k3="1"/>
      <feColorMatrix
        type="matrix"
        values="0 0 0 0 0.0235294 0 0 0 0 0.537255 0 0 0 0 0.792157 0 0 0 0.25 0"
      />
      <feBlend mode="normal" in2="shape" result="effect1_innerShadow_logo"/>
    </filter>
    <linearGradient
      id="paint0_logo"
      x1="23"
      y1="0.358643"
      x2="23"
      y2="44.3586"
      gradientUnits="userSpaceOnUse"
    >
      <stop stop-color="#1396D7"/>
      <stop offset="1" stop-color="#007CBD"/>
    </linearGradient>
    <clipPath id="clip0_logo">
      <rect x="1" y="0.358643" width="44" height="44" rx="9.5" fill="white"/>
    </clipPath>
  </defs>
</svg>
