<svg
  fill="none"
  height="45"
  viewBox="0 0 46 45"
  width="46"
  xmlns="http://www.w3.org/2000/svg"
>
  <title>Trade Logger logo</title>
  <g clip-path="url(#clip0_467_3701)">
    <path
      d="M1.91667 9.8584C1.91667 5.11795 5.75956 1.27507 10.5 1.27507H35.5C40.2404 1.27507 44.0833 5.11795 44.0833 9.8584V34.8584C44.0833 39.5988 40.2404 43.4417 35.5 43.4417H10.5C5.75956 43.4417 1.91667 39.5988 1.91667 34.8584V9.8584Z"
      fill="#1F2123"
    />
    <path
      d="M1.91667 9.8584C1.91667 5.11795 5.75956 1.27507 10.5 1.27507H35.5C40.2404 1.27507 44.0833 5.11795 44.0833 9.8584V34.8584C44.0833 39.5988 40.2404 43.4417 35.5 43.4417H10.5C5.75956 43.4417 1.91667 39.5988 1.91667 34.8584V9.8584Z"
      stroke="url(#paint0_linear_467_3701)"
      stroke-width="1.83333"
    />
    <path
      clip-rule="evenodd"
      d="M19.8676 11.3626C20.5546 11.7592 20.79 12.6377 20.3934 13.3247L13.2117 25.7636C12.8151 26.4506 11.9366 26.686 11.2497 26.2893C10.5627 25.8927 10.3273 25.0143 10.7239 24.3273L17.9056 11.8883C18.3022 11.2013 19.1806 10.966 19.8676 11.3626ZM28.0366 14.4482C28.7236 14.8448 28.9589 15.7232 28.5623 16.4102L19.9443 31.337C19.5477 32.024 18.6693 32.2593 17.9823 31.8627C17.2953 31.4661 17.0599 30.5877 17.4565 29.9006L26.0745 14.9739C26.4711 14.2869 27.3496 14.0515 28.0366 14.4482ZM35.8938 20.9453C36.3565 20.1439 36.1747 19.1726 35.4877 18.776C34.8007 18.3793 33.8687 18.7075 33.406 19.509L25.0274 34.0211C24.5647 34.8226 24.7464 35.7939 25.4334 36.1905C26.1205 36.5871 27.0525 36.259 27.5152 35.4574L35.8938 20.9453Z"
      fill="white"
      fill-rule="evenodd"
    />
    <path
      clip-rule="evenodd"
      d="M26.9951 10.5131C27.3917 9.82615 27.1564 8.94769 26.4694 8.55107C25.7824 8.15444 24.9039 8.38982 24.5073 9.0768L11.5804 31.4669C11.1837 32.1539 11.4191 33.0324 12.1061 33.429C12.7931 33.8256 13.6715 33.5903 14.0682 32.9033L26.9951 10.5131ZM30.3069 22.0104C30.7348 21.2692 30.5248 20.3468 29.8378 19.9502C29.1508 19.5536 28.247 19.8329 27.8191 20.574L23.1703 28.626C22.7424 29.3671 22.9524 30.2895 23.6394 30.6861C24.3264 31.0828 25.2302 30.8035 25.6581 30.0623L30.3069 22.0104ZM35.6267 27.1601C36.3137 27.5567 36.5491 28.4351 36.1524 29.1221L34.7161 31.6099C34.3195 32.2969 33.4411 32.5323 32.7541 32.1356C32.067 31.739 31.8317 30.8606 32.2283 30.1736L33.6646 27.6858C34.0613 26.9988 34.9397 26.7634 35.6267 27.1601ZM13.8131 16.1074C14.2186 15.4051 13.9903 14.5143 13.3034 14.1177C12.6164 13.721 11.7308 13.9688 11.3253 14.6711L9.85698 17.2143C9.4515 17.9166 9.67973 18.8075 10.3667 19.2041C11.0537 19.6007 11.9393 19.353 12.3448 18.6506L13.8131 16.1074Z"
      fill="white"
      fill-rule="evenodd"
      opacity="0.4"
    />
  </g>
  <rect
    height="44.1375"
    rx="9.56875"
    stroke="black"
    stroke-opacity="0.6"
    stroke-width="0.1375"
    width="44.1375"
    x="0.93125"
    y="0.289648"
  />
  <defs>
    <linearGradient
      gradientUnits="userSpaceOnUse"
      id="paint0_linear_467_3701"
      x1="23"
      x2="23"
      y1="0.358398"
      y2="44.3584"
    >
      <stop stop-color="#2B2D2F" />
      <stop offset="1" stop-color="#131517" />
    </linearGradient>
    <clipPath id="clip0_467_3701">
      <rect fill="white" height="44" rx="9.5" width="44" x="1" y="0.358398" />
    </clipPath>
  </defs>
</svg>
